<svg xmlns="http://www.w3.org/2000/svg" viewBox="0 0 32 32">
  <!-- Background rounded square - HVAC dark background -->
  <rect width="32" height="32" rx="6" fill="#1A1A1A"/>
  
  <!-- Stylized snowflake/AC icon in HVAC orange -->
  <g fill="#F97316">
    <!-- Center circle -->
    <circle cx="16" cy="16" r="2"/>
    
    <!-- Top spoke -->
    <rect x="15" y="6" width="2" height="8" rx="1"/>
    <path d="M13 8 L16 6 L19 8" stroke="#F97316" stroke-width="1.5" fill="none" stroke-linecap="round" stroke-linejoin="round"/>
    
    <!-- Bottom spoke -->
    <rect x="15" y="18" width="2" height="8" rx="1"/>
    <path d="M13 24 L16 26 L19 24" stroke="#F97316" stroke-width="1.5" fill="none" stroke-linecap="round" stroke-linejoin="round"/>
    
    <!-- Left spoke -->
    <rect x="6" y="15" width="8" height="2" rx="1"/>
    <path d="M8 13 L6 16 L8 19" stroke="#F97316" stroke-width="1.5" fill="none" stroke-linecap="round" stroke-linejoin="round"/>
    
    <!-- Right spoke -->
    <rect x="18" y="15" width="8" height="2" rx="1"/>
    <path d="M24 13 L26 16 L24 19" stroke="#F97316" stroke-width="1.5" fill="none" stroke-linecap="round" stroke-linejoin="round"/>
    
    <!-- Diagonal spokes -->
    <rect x="10.5" y="10.5" width="2" height="6" rx="1" transform="rotate(-45 16 16)"/>
    <rect x="19.5" y="10.5" width="2" height="6" rx="1" transform="rotate(45 16 16)"/>
    <rect x="10.5" y="19.5" width="2" height="6" rx="1" transform="rotate(45 16 16)"/>
    <rect x="19.5" y="19.5" width="2" height="6" rx="1" transform="rotate(-45 16 16)"/>
  </g>
</svg>
